<?xml version="1.0" standalone="no"?><!DOCTYPE svg PUBLIC "-//W3C//DTD SVG 1.1//EN" "http://www.w3.org/Graphics/SVG/1.1/DTD/svg11.dtd"><svg t="1781765161273" class="icon" viewBox="0 0 1024 1024" version="1.1" xmlns="http://www.w3.org/2000/svg" p-id="5020" xmlns:xlink="http://www.w3.org/1999/xlink" width="200" height="200"><path d="M448 128c-70.4 0-128 57.6-128 128 0 12.8 0 25.6 6.4 38.4-51.2 25.6-86.4 76.8-86.4 140.8 0 25.6 6.4 51.2 19.2 70.4-38.4 25.6-64 70.4-64 121.6 0 83.2 64 153.6 147.2 153.6 6.4 0 19.2 0 25.6-2.56V832c0 35.2 25.6 64 57.6 64h64c32 0 57.6-28.8 57.6-64V192c0-35.2-25.6-64-57.6-64h-44.8z m192 0c-32 0-57.6 28.8-57.6 64v640c0 35.2 25.6 64 57.6 64h64c32 0 57.6-28.8 57.6-64v-54.56c6.4 2.56 19.2 2.56 25.6 2.56 83.2 0 147.2-70.4 147.2-153.6 0-51.2-25.6-96-64-121.6 12.8-19.2 19.2-44.8 19.2-70.4 0-64-35.2-115.2-86.4-140.8 6.4-12.8 6.4-25.6 6.4-38.4 0-70.4-57.6-128-128-128h-44.8z" fill="#1296db" p-id="5021"></path></svg>
