<?xml version="1.0" standalone="no"?><!DOCTYPE svg PUBLIC "-//W3C//DTD SVG 1.1//EN" "http://www.w3.org/Graphics/SVG/1.1/DTD/svg11.dtd"><svg t="1781765365223" class="icon" viewBox="0 0 1024 1024" version="1.1" xmlns="http://www.w3.org/2000/svg" p-id="10400" xmlns:xlink="http://www.w3.org/1999/xlink" width="200" height="200"><path d="M724.2 427.6L560.4 591.4 444.6 475.6c-15.9-15.9-42-15.9-57.9 0L241.9 620.4c-15.9 15.9-15.9 42 0 57.9 15.9 15.9 42 15.9 57.9 0l115.9-115.9L531 677.8c0.2 0.2 0.3 0.4 0.4 0.5 8 8 18.5 12 29 11.9 10.5 0 21-4 29-11.9 0.2-0.2 0.3-0.4 0.4-0.5l192.3-192.3c15.9-15.9 15.9-42 0-57.9-15.9-15.9-42-15.9-57.9 0z" p-id="10401" fill="#1296db"></path><path d="M860.2 102.4h-65.8C781 55.2 737.6 20.5 686.1 20.5H337.9c-51.5 0-94.9 34.7-108.3 81.9h-65.8C96.1 102.4 41 157.5 41 225.3v655.4c0 67.8 55.1 122.9 122.9 122.9h696.3c67.8 0 122.9-55.1 122.9-122.9V225.3c-0.1-67.8-55.2-122.9-122.9-122.9z m-553 30.7c0-16.9 13.8-30.7 30.7-30.7h348.2c16.9 0 30.7 13.8 30.7 30.7v20.5c0 16.9-13.8 30.7-30.7 30.7H337.9c-16.9 0-30.7-13.8-30.7-30.7v-20.5z m593.9 747.5c0 22.6-18.4 41-41 41H163.8c-22.6 0-41-18.4-41-41V225.3c0-22.6 18.4-41 41-41h65.8c13.4 47.2 56.8 81.9 108.3 81.9h348.2c51.5 0 94.9-34.7 108.3-81.9h65.8c22.6 0 41 18.4 41 41v655.3z" p-id="10402" fill="#1296db"></path></svg>