<?xml version="1.0" standalone="no"?><!DOCTYPE svg PUBLIC "-//W3C//DTD SVG 1.1//EN" "http://www.w3.org/Graphics/SVG/1.1/DTD/svg11.dtd"><svg t="1781765396089" class="icon" viewBox="0 0 1024 1024" version="1.1" xmlns="http://www.w3.org/2000/svg" p-id="11493" xmlns:xlink="http://www.w3.org/1999/xlink" width="200" height="200"><path d="M539.52 128.853333v-20.48h113.28c17.706667 0 32-14.293333 32-32s-14.293333-32-32-32H362.24c-17.706667 0-32 14.293333-32 32s14.293333 32 32 32h113.28v20.906667C257.066667 147.84 84.693333 331.306667 84.693333 554.666667c0 235.52 191.573333 427.306667 427.306667 427.306666 235.52 0 427.306667-191.573333 427.306667-427.306666 0-226.346667-177.066667-411.52-399.786667-425.813334zM512 917.76c-200.32 0-363.306667-162.986667-363.306667-363.306667S311.68 191.36 512 191.36 875.306667 354.346667 875.306667 554.666667 712.32 917.76 512 917.76z" p-id="11494" fill="#1296db"></path><path d="M544 543.573333v-188.16c0-17.706667-14.293333-32-32-32s-32 14.293333-32 32v210.133334l129.493333 165.76c6.4 8.106667 15.786667 12.373333 25.173334 12.373333 6.826667 0 13.866667-2.133333 19.626666-6.826667 13.866667-10.88 16.426667-30.933333 5.546667-45.013333l-115.84-148.266667z" p-id="11495" fill="#1296db"></path></svg>